<svg xmlns="http://www.w3.org/2000/svg" width="500" height="500" viewBox="0 0 500 500" version="1.1"><path d="M 178.252 122.500 C 178.263 124.700, 178.468 125.482, 178.707 124.238 C 178.946 122.994, 178.937 121.194, 178.687 120.238 C 178.437 119.282, 178.241 120.300, 178.252 122.500 M 396.320 129 C 396.320 132.575, 396.502 134.037, 396.723 132.250 C 396.945 130.463, 396.945 127.537, 396.723 125.750 C 396.502 123.963, 396.320 125.425, 396.320 129 M 131.191 127.747 C 138.171 127.918, 149.871 127.919, 157.191 127.748 C 164.511 127.577, 158.800 127.436, 144.500 127.436 C 130.200 127.435, 124.211 127.575, 131.191 127.747 M 207.250 127.743 C 211.512 127.931, 218.488 127.931, 222.750 127.743 C 227.012 127.556, 223.525 127.402, 215 127.402 C 206.475 127.402, 202.988 127.556, 207.250 127.743 M 187.015 137.750 C 187.007 140.088, 187.174 142, 187.387 142 C 188.222 142, 188.599 135.972, 187.839 134.773 C 187.354 134.010, 187.024 135.201, 187.015 137.750 M 177.300 141 C 177.300 144.025, 177.487 145.262, 177.716 143.750 C 177.945 142.238, 177.945 139.762, 177.716 138.250 C 177.487 136.738, 177.300 137.975, 177.300 141 M 387.310 142.500 C 387.315 145.800, 387.502 147.029, 387.725 145.232 C 387.947 143.435, 387.943 140.735, 387.715 139.232 C 387.486 137.729, 387.304 139.200, 387.310 142.500 M 397.320 152 C 397.320 155.575, 397.502 157.037, 397.723 155.250 C 397.945 153.463, 397.945 150.537, 397.723 148.750 C 397.502 146.963, 397.320 148.425, 397.320 152 M 186.300 157 C 186.300 160.025, 186.487 161.262, 186.716 159.750 C 186.945 158.238, 186.945 155.762, 186.716 154.250 C 186.487 152.738, 186.300 153.975, 186.300 157 M 176.300 161 C 176.300 164.025, 176.487 165.262, 176.716 163.750 C 176.945 162.238, 176.945 159.762, 176.716 158.250 C 176.487 156.738, 176.300 157.975, 176.300 161 M 388.300 164 C 388.300 167.025, 388.487 168.262, 388.716 166.750 C 388.945 165.238, 388.945 162.762, 388.716 161.250 C 388.487 159.738, 388.300 160.975, 388.300 164 M 398.310 174.500 C 398.315 177.800, 398.502 179.029, 398.725 177.232 C 398.947 175.435, 398.943 172.735, 398.715 171.232 C 398.486 169.729, 398.304 171.200, 398.310 174.500 M 185.300 177 C 185.300 180.025, 185.487 181.262, 185.716 179.750 C 185.945 178.238, 185.945 175.762, 185.716 174.250 C 185.487 172.738, 185.300 173.975, 185.300 177 M 175.300 181 C 175.300 184.025, 175.487 185.262, 175.716 183.750 C 175.945 182.238, 175.945 179.762, 175.716 178.250 C 175.487 176.738, 175.300 177.975, 175.300 181 M 389.310 185.500 C 389.315 188.800, 389.502 190.029, 389.725 188.232 C 389.947 186.435, 389.943 183.735, 389.715 182.232 C 389.486 180.729, 389.304 182.200, 389.310 185.500 M 184.300 197 C 184.300 200.025, 184.487 201.262, 184.716 199.750 C 184.945 198.238, 184.945 195.762, 184.716 194.250 C 184.487 192.738, 184.300 193.975, 184.300 197 M 399.310 197.500 C 399.315 200.800, 399.502 202.029, 399.725 200.232 C 399.947 198.435, 399.943 195.735, 399.715 194.232 C 399.486 192.729, 399.304 194.200, 399.310 197.500 M 174.300 202 C 174.300 205.025, 174.487 206.262, 174.716 204.750 C 174.945 203.238, 174.945 200.762, 174.716 199.250 C 174.487 197.738, 174.300 198.975, 174.300 202 M 390.300 207 C 390.300 210.025, 390.487 211.262, 390.716 209.750 C 390.945 208.238, 390.945 205.762, 390.716 204.250 C 390.487 202.738, 390.300 203.975, 390.300 207 M 183.300 217 C 183.300 220.025, 183.487 221.262, 183.716 219.750 C 183.945 218.238, 183.945 215.762, 183.716 214.250 C 183.487 212.738, 183.300 213.975, 183.300 217 M 400.310 220.500 C 400.315 223.800, 400.502 225.029, 400.725 223.232 C 400.947 221.435, 400.943 218.735, 400.715 217.232 C 400.486 215.729, 400.304 217.200, 400.310 220.500 M 173.300 222 C 173.300 225.025, 173.487 226.262, 173.716 224.750 C 173.945 223.238, 173.945 220.762, 173.716 219.250 C 173.487 217.738, 173.300 218.975, 173.300 222 M 391.310 228.500 C 391.315 231.800, 391.502 233.029, 391.725 231.232 C 391.947 229.435, 391.943 226.735, 391.715 225.232 C 391.486 223.729, 391.304 225.200, 391.310 228.500 M 145.198 236.749 L 171.897 237.032 172.263 242.266 L 172.630 247.500 172.815 241.750 L 173 236 145.750 236.233 L 118.500 236.466 145.198 236.749 M 182.150 239.250 C 182.288 242.248, 182.332 242.288, 182.714 239.768 L 183.129 237.037 206.315 236.749 L 229.500 236.461 205.750 236.231 L 182 236 182.150 239.250 M 401.310 243.500 C 401.315 246.800, 401.502 248.029, 401.725 246.232 C 401.947 244.435, 401.943 241.735, 401.715 240.232 C 401.486 238.729, 401.304 240.200, 401.310 243.500 M 392.310 250.500 C 392.315 253.800, 392.502 255.029, 392.725 253.232 C 392.947 251.435, 392.943 248.735, 392.715 247.232 C 392.486 245.729, 392.304 247.200, 392.310 250.500 M 181.300 257 C 181.300 260.025, 181.487 261.262, 181.716 259.750 C 181.945 258.238, 181.945 255.762, 181.716 254.250 C 181.487 252.738, 181.300 253.975, 181.300 257 M 171.300 263 C 171.300 266.025, 171.487 267.262, 171.716 265.750 C 171.945 264.238, 171.945 261.762, 171.716 260.250 C 171.487 258.738, 171.300 259.975, 171.300 263 M 402.310 266.500 C 402.315 269.800, 402.502 271.029, 402.725 269.232 C 402.947 267.435, 402.943 264.735, 402.715 263.232 C 402.486 261.729, 402.304 263.200, 402.310 266.500 M 393.300 272 C 393.300 275.025, 393.487 276.262, 393.716 274.750 C 393.945 273.238, 393.945 270.762, 393.716 269.250 C 393.487 267.738, 393.300 268.975, 393.300 272 M 180.300 277 C 180.300 280.025, 180.487 281.262, 180.716 279.750 C 180.945 278.238, 180.945 275.762, 180.716 274.250 C 180.487 272.738, 180.300 273.975, 180.300 277 M 170.300 283 C 170.300 286.025, 170.487 287.262, 170.716 285.750 C 170.945 284.238, 170.945 281.762, 170.716 280.250 C 170.487 278.738, 170.300 279.975, 170.300 283 M 403.310 289.500 C 403.315 292.800, 403.502 294.029, 403.725 292.232 C 403.947 290.435, 403.943 287.735, 403.715 286.232 C 403.486 284.729, 403.304 286.200, 403.310 289.500 M 394.310 293.500 C 394.315 296.800, 394.502 298.029, 394.725 296.232 C 394.947 294.435, 394.943 291.735, 394.715 290.232 C 394.486 288.729, 394.304 290.200, 394.310 293.500 M 179.300 297 C 179.300 300.025, 179.487 301.262, 179.716 299.750 C 179.945 298.238, 179.945 295.762, 179.716 294.250 C 179.487 292.738, 179.300 293.975, 179.300 297 M 169.300 303 C 169.300 306.025, 169.487 307.262, 169.716 305.750 C 169.945 304.238, 169.945 301.762, 169.716 300.250 C 169.487 298.738, 169.300 299.975, 169.300 303 M 404.310 312.500 C 404.315 315.800, 404.502 317.029, 404.725 315.232 C 404.947 313.435, 404.943 310.735, 404.715 309.232 C 404.486 307.729, 404.304 309.200, 404.310 312.500 M 395.310 315.500 C 395.315 318.800, 395.502 320.029, 395.725 318.232 C 395.947 316.435, 395.943 313.735, 395.715 312.232 C 395.486 310.729, 395.304 312.200, 395.310 315.500 M 178.300 317 C 178.300 320.025, 178.487 321.262, 178.716 319.750 C 178.945 318.238, 178.945 315.762, 178.716 314.250 C 178.487 312.738, 178.300 313.975, 178.300 317 M 168.300 324 C 168.300 327.025, 168.487 328.262, 168.716 326.750 C 168.945 325.238, 168.945 322.762, 168.716 321.250 C 168.487 319.738, 168.300 320.975, 168.300 324 M 405.310 335.500 C 405.315 338.800, 405.502 340.029, 405.725 338.232 C 405.947 336.435, 405.943 333.735, 405.715 332.232 C 405.486 330.729, 405.304 332.200, 405.310 335.500 M 396.310 336.500 C 396.315 339.800, 396.502 341.029, 396.725 339.232 C 396.947 337.435, 396.943 334.735, 396.715 333.232 C 396.486 331.729, 396.304 333.200, 396.310 336.500 M 177.300 337 C 177.300 340.025, 177.487 341.262, 177.716 339.750 C 177.945 338.238, 177.945 335.762, 177.716 334.250 C 177.487 332.738, 177.300 333.975, 177.300 337 M 167.310 344.500 C 167.315 347.800, 167.502 349.029, 167.725 347.232 C 167.947 345.435, 167.943 342.735, 167.715 341.232 C 167.486 339.729, 167.304 341.200, 167.310 344.500 M 324.250 361.689 C 325.212 361.941, 326.788 361.941, 327.750 361.689 C 328.712 361.438, 327.925 361.232, 326 361.232 C 324.075 361.232, 323.288 361.438, 324.250 361.689 M 144 376.500 L 144 391 154.500 391 L 165 391 165 388 L 165 385 158.500 385 C 152.233 385, 152 384.910, 152 382.500 C 152 380.111, 152.267 380, 158 380 L 164 380 164 376.500 L 164 373 158 373 C 152.267 373, 152 372.889, 152 370.500 C 152 368.090, 152.233 368, 158.500 368 L 165 368 165 365 L 165 362 154.500 362 L 144 362 144 376.500 M 169 365.844 C 169 367.959, 168.707 374.484, 168.348 380.344 L 167.696 391 171.348 391 L 175 391 175.049 384.250 L 175.098 377.500 178.563 384.250 C 181.664 390.292, 182.339 391, 185 391 C 187.661 391, 188.336 390.292, 191.437 384.250 L 194.902 377.500 194.951 384.250 L 195 391 198.500 391 L 202 391 201.989 380.250 C 201.983 374.337, 201.699 367.813, 201.358 365.750 C 200.810 362.435, 200.406 362, 197.879 362 C 195.263 362, 194.602 362.831, 190.126 371.747 L 185.233 381.495 180.391 371.747 C 175.741 362.388, 175.418 362, 172.274 362 C 169.143 362, 169 362.168, 169 365.844 M 207 376.500 L 207 391 216.045 391 C 224.316 391, 225.301 390.790, 227.545 388.545 C 230.385 385.706, 230.890 379.983, 228.477 377.981 C 227.114 376.850, 227.114 376.475, 228.477 374.394 C 229.315 373.116, 230 371.191, 230 370.117 C 230 364.168, 226.006 362, 215.050 362 L 207 362 207 376.500 M 233 376.500 L 233 391 243.500 391 L 254 391 254 388 L 254 385 247.500 385 C 241.233 385, 241 384.910, 241 382.500 C 241 380.111, 241.267 380, 247 380 L 253 380 253 376.500 L 253 373 247 373 C 241.267 373, 241 372.889, 241 370.500 C 241 368.090, 241.233 368, 247.500 368 L 254 368 254 365 L 254 362 243.500 362 L 233 362 233 376.500 M 281.400 376.500 C 281.401 384.750, 281.556 387.992, 281.744 383.704 C 281.932 379.417, 281.931 372.667, 281.742 368.704 C 281.552 364.742, 281.399 368.250, 281.400 376.500 M 288.382 373.500 C 288.384 380.100, 288.546 382.670, 288.741 379.211 C 288.937 375.752, 288.936 370.352, 288.738 367.211 C 288.540 364.070, 288.380 366.900, 288.382 373.500 M 303.400 376.500 C 303.401 384.750, 303.556 387.992, 303.744 383.704 C 303.932 379.417, 303.931 372.667, 303.742 368.704 C 303.552 364.742, 303.399 368.250, 303.400 376.500 M 310.400 376.500 C 310.401 384.750, 310.556 387.992, 310.744 383.704 C 310.932 379.417, 310.931 372.667, 310.742 368.704 C 310.552 364.742, 310.399 368.250, 310.400 376.500 M 214 370.500 C 214 372.917, 214.292 373.097, 217.750 372.810 C 220.730 372.564, 221.500 372.089, 221.500 370.500 C 221.500 368.911, 220.730 368.436, 217.750 368.190 C 214.292 367.903, 214 368.083, 214 370.500 M 349.750 373.723 C 351.538 373.945, 354.462 373.945, 356.250 373.723 C 358.038 373.502, 356.575 373.320, 353 373.320 C 349.425 373.320, 347.962 373.502, 349.750 373.723 M 349.750 379.723 C 351.538 379.945, 354.462 379.945, 356.250 379.723 C 358.038 379.502, 356.575 379.320, 353 379.320 C 349.425 379.320, 347.962 379.502, 349.750 379.723 M 214 382.500 C 214 384.958, 214.255 385.097, 218.250 384.807 C 221.731 384.556, 222.500 384.138, 222.500 382.500 C 222.500 380.862, 221.731 380.444, 218.250 380.193 C 214.255 379.903, 214 380.042, 214 382.500 M 323.250 391.689 C 324.212 391.941, 325.788 391.941, 326.750 391.689 C 327.712 391.438, 326.925 391.232, 325 391.232 C 323.075 391.232, 322.288 391.438, 323.250 391.689" stroke="none" fill="#fc964f" fill-rule="evenodd"/><path d="M 109.461 120.250 C 109.199 120.938, 109.101 172.800, 109.243 235.500 L 109.500 349.500 132 349.500 L 154.500 349.500 154.500 345.500 L 154.500 341.500 136.750 341.227 L 119 340.954 119 288.477 L 119 236 146 236 C 166.937 236, 172.999 236.281, 172.993 237.250 C 172.990 237.938, 171.868 260.775, 170.500 288 C 169.132 315.225, 168.010 340.313, 168.007 343.750 L 168 350 172.031 350 C 174.378 350, 176.228 349.478, 176.459 348.750 C 176.837 347.560, 182.040 244.502, 182.013 238.750 L 182 236 205.437 236 L 228.873 236 229.187 232.820 C 229.434 230.313, 235.020 242.332, 255.562 289.570 L 281.624 349.500 287.020 349.500 L 292.415 349.500 339.458 241.745 C 378.653 151.965, 386.615 134.450, 387.187 136.745 C 387.564 138.260, 389.954 186.300, 392.498 243.500 C 395.041 300.700, 397.306 348.063, 397.530 348.750 C 397.768 349.480, 399.641 350, 402.035 350 L 406.134 350 405.517 339.750 C 404.863 328.885, 396 125.558, 396 121.427 C 396 119.116, 395.701 119, 389.750 119.004 L 383.500 119.008 335.500 229.493 C 305.116 299.431, 287.198 339.523, 286.676 338.739 C 286.223 338.057, 264.606 288.450, 238.637 228.500 L 191.422 119.500 185.211 119.202 C 180.663 118.984, 178.979 119.252, 178.922 120.202 C 178.879 120.916, 177.642 145.350, 176.172 174.500 L 173.500 227.500 146.250 227.766 L 119 228.032 119 177.516 L 119 127 144.500 127 L 170 127 170 123 L 170 119 139.969 119 C 116.864 119, 109.827 119.288, 109.461 120.250 M 200 122.973 L 200 127 215.060 127 L 230.121 127 229.810 123.250 L 229.500 119.500 214.750 119.223 L 200 118.947 200 122.973 M 187.013 139 C 186.987 142.025, 186.081 161.375, 185 182 C 183.919 202.625, 183.027 221.412, 183.017 223.750 L 183 228 205.878 228 L 228.755 228 208.961 182.559 C 198.073 157.567, 188.692 136.304, 188.113 135.309 C 187.282 133.881, 187.051 134.657, 187.013 139 M 185 345.500 L 185 350 208.941 350 C 222.109 350, 233.093 349.659, 233.350 349.242 C 233.608 348.826, 234.134 346.801, 234.521 344.742 L 235.223 341 210.111 341 L 185 341 185 345.500 M 260 376.500 L 260 391 269.500 391 L 279 391 279 388 L 279 385 273 385 L 267 385 267 373.500 L 267 362 263.500 362 L 260 362 260 376.500 M 282 376.500 L 282 391 291.500 391 L 301 391 301 388 L 301 385 294.500 385 L 288 385 288 373.500 L 288 362 285 362 L 282 362 282 376.500 M 304 376.500 L 304 391 307 391 L 310 391 310 376.500 L 310 362 307 362 L 304 362 304 376.500 M 318.356 364.370 C 316.303 366.136, 315.600 367.654, 315.600 370.321 C 315.600 374.887, 317.931 377.441, 323.531 379.009 C 328.952 380.526, 330.777 382.359, 329 384.500 C 327.251 386.608, 323.365 386.365, 321 384 C 318.680 381.680, 314 381.291, 314 383.418 C 314 387.964, 318.405 391, 325 391 C 330.513 391, 334.546 388.740, 335.884 384.902 C 337.657 379.818, 335.620 376.907, 328.535 374.393 C 322.259 372.167, 321.043 370.858, 323.028 368.466 C 324.596 366.577, 327.450 366.592, 329.357 368.500 C 331.368 370.511, 336 370.479, 336 368.455 C 336 367.605, 334.895 365.805, 333.545 364.455 C 330.105 361.014, 322.308 360.971, 318.356 364.370 M 340 376.500 L 340 391 343.500 391 L 347 391 347 385 L 347 379 353 379 L 359 379 359 385 L 359 391 362.500 391 L 366 391 366 376.500 L 366 362 362.500 362 L 359 362 359 368 L 359 374 353 374 L 347 374 347 368 L 347 362 343.500 362 L 340 362 340 376.500" stroke="none" fill="#090909" fill-rule="evenodd"/></svg>